<mxfile host="Electron" agent="Mozilla/5.0 (X11; Linux x86_64) AppleWebKit/537.36 (KHTML, like Gecko) draw.io/26.0.4 Chrome/128.0.6613.186 Electron/32.2.5 Safari/537.36" version="26.0.4">
  <diagram name="examenes-competencias" id="t1kaTWhzhrwYOHwaJRvk">
    <mxGraphModel dx="541" dy="849" grid="1" gridSize="10" guides="1" tooltips="1" connect="1" arrows="1" fold="1" page="1" pageScale="1" pageWidth="850" pageHeight="1100" math="0" shadow="0">
      <root>
        <mxCell id="0" />
        <mxCell id="1" parent="0" />
        <mxCell id="A1NEuHeW2__CrouAMQTL-1" value="" style="shape=cylinder3;whiteSpace=wrap;html=1;boundedLbl=1;backgroundOutline=1;size=15;" parent="1" vertex="1">
          <mxGeometry x="160" y="20" width="60" height="130" as="geometry" />
        </mxCell>
        <mxCell id="A1NEuHeW2__CrouAMQTL-2" value="Las columnas del salón de actos del CEPA necesitan pintarse. Las columnas son cilíndricas, tienen 3 m de altura y las bases 50 cm de diámetro. Calcula:&lt;br&gt;a) Los metros cuadrados de superficie que se han de pintar de cada columna. (1 punto).&lt;br&gt;b) Los euros que gastaremos en botes de pintura si queremos pintar las 8 columnas del&lt;br&gt;salón de actos. La pintura se vende en botes de 4 litros, el precio es de 15€ el litro y la&lt;br&gt;2etiqueta informa de que un litro de pintura cubre 10 m de superficie. (1 punto)" style="text;strokeColor=none;align=left;fillColor=none;html=1;verticalAlign=middle;whiteSpace=wrap;rounded=0;" parent="1" vertex="1">
          <mxGeometry x="400" width="340" height="230" as="geometry" />
        </mxCell>
        <mxCell id="A1NEuHeW2__CrouAMQTL-3" value="3 mts altura" style="text;strokeColor=none;align=center;fillColor=none;html=1;verticalAlign=middle;whiteSpace=wrap;rounded=0;" parent="1" vertex="1">
          <mxGeometry x="220" y="70" width="100" height="30" as="geometry" />
        </mxCell>
        <mxCell id="A1NEuHeW2__CrouAMQTL-4" value="50 cm diametro" style="text;strokeColor=none;align=center;fillColor=none;html=1;verticalAlign=middle;whiteSpace=wrap;rounded=0;" parent="1" vertex="1">
          <mxGeometry x="135" y="150" width="110" height="30" as="geometry" />
        </mxCell>
        <mxCell id="A1NEuHeW2__CrouAMQTL-5" value="pi 3.1416" style="text;strokeColor=none;align=left;fillColor=none;html=1;verticalAlign=middle;whiteSpace=wrap;rounded=0;" parent="1" vertex="1">
          <mxGeometry x="80" y="210" width="60" height="30" as="geometry" />
        </mxCell>
        <mxCell id="A1NEuHeW2__CrouAMQTL-6" value="&lt;span lang=&quot;es&quot; class=&quot;BxUVEf ILfuVd&quot;&gt;&lt;b&gt;superficie de un cilindro 2π r h + 2π r²&lt;/b&gt;.&lt;/span&gt;" style="text;strokeColor=none;align=center;fillColor=none;html=1;verticalAlign=middle;whiteSpace=wrap;rounded=0;" parent="1" vertex="1">
          <mxGeometry x="410" y="230" width="260" height="30" as="geometry" />
        </mxCell>
        <mxCell id="A1NEuHeW2__CrouAMQTL-7" value="superficie (sin las bases) =&amp;nbsp;4,7124mt2" style="text;strokeColor=none;align=left;fillColor=none;html=1;verticalAlign=middle;whiteSpace=wrap;rounded=0;" parent="1" vertex="1">
          <mxGeometry x="80" y="240" width="240" height="30" as="geometry" />
        </mxCell>
        <mxCell id="A1NEuHeW2__CrouAMQTL-8" value="superficie (con las bases) = 5,1051mt2&amp;nbsp;" style="text;strokeColor=none;align=left;fillColor=none;html=1;verticalAlign=middle;whiteSpace=wrap;rounded=0;" parent="1" vertex="1">
          <mxGeometry x="80" y="270" width="240" height="30" as="geometry" />
        </mxCell>
        <mxCell id="A1NEuHeW2__CrouAMQTL-9" value="&lt;div&gt;Tenemos dos trozos de tela, las dos de forma cuadrada, una de color rojo y otra de co&lt;span style=&quot;background-color: transparent; color: light-dark(rgb(0, 0, 0), rgb(255, 255, 255));&quot;&gt;lor verde.&amp;nbsp;&lt;/span&gt;&lt;/div&gt;&lt;div&gt;&lt;span style=&quot;background-color: transparent; color: light-dark(rgb(0, 0, 0), rgb(255, 255, 255));&quot;&gt;Los lados de la tela roja son exactamente el doble que los lados de la tela ver&lt;/span&gt;&lt;span style=&quot;background-color: transparent; color: light-dark(rgb(0, 0, 0), rgb(255, 255, 255));&quot;&gt;de. Si a la tela roja le cortamos 1 cm de cada lado, resulta una tela cuadrada de 25 cm2&amp;nbsp;&lt;/span&gt;&lt;span style=&quot;background-color: transparent; color: light-dark(rgb(0, 0, 0), rgb(255, 255, 255));&quot;&gt;de superficie. Calcula el perímetro de la tela verde.&lt;/span&gt;&lt;/div&gt;" style="text;strokeColor=none;align=left;fillColor=none;html=1;verticalAlign=middle;whiteSpace=wrap;rounded=0;" parent="1" vertex="1">
          <mxGeometry x="80" y="330" width="420" height="130" as="geometry" />
        </mxCell>
        <mxCell id="A1NEuHeW2__CrouAMQTL-10" value="" style="whiteSpace=wrap;html=1;aspect=fixed;fillColor=#d5e8d4;strokeColor=#82b366;" parent="1" vertex="1">
          <mxGeometry x="80" y="480" width="80" height="80" as="geometry" />
        </mxCell>
        <mxCell id="A1NEuHeW2__CrouAMQTL-11" value="" style="whiteSpace=wrap;html=1;aspect=fixed;fillColor=#f8cecc;strokeColor=#b85450;" parent="1" vertex="1">
          <mxGeometry x="80" y="560" width="160" height="160" as="geometry" />
        </mxCell>
        <mxCell id="A1NEuHeW2__CrouAMQTL-12" value="x mts2 - 0,01mts2 = 0,25cm2&lt;div&gt;&lt;br&gt;&lt;/div&gt;&lt;div&gt;superficie de la tela verde = 0,13mts2&lt;/div&gt;&lt;div&gt;perimetro de la tela verde = 0,26mts2&lt;/div&gt;" style="text;strokeColor=none;align=left;fillColor=none;html=1;verticalAlign=middle;whiteSpace=wrap;rounded=0;" parent="1" vertex="1">
          <mxGeometry x="170" y="480" width="220" height="60" as="geometry" />
        </mxCell>
      </root>
    </mxGraphModel>
  </diagram>
</mxfile>
